{"title":"Last Train to Freo[x264][AC3(5.1)] Nordic_Sub.mkv","uid":5250813,"size":1059661573,"categoryP":"video","categoryS":"movies","magnet":"?xt=urn:btih:0bbb411503b535a1f4770c252aeaeea94763729d&amp;dn=Last+Train+to+Freo%5Bx264%5D%5BAC3%285.1%29%5D+Nordic_Sub.mkv&amp;tr=udp%3A%2F%2Ftracker.openbittorrent.com%3A80&amp;tr=udp%3A%2F%2Fopen.demonii.com%3A1337&amp;tr=udp%3A%2F%2Ftracker.coppersurfer.tk%3A6969&amp;tr=udp%3A%2F%2Fexodus.desync.com%3A6969","seeders":0,"leechers":2,"uploader":"Zen_Bud","files":-1,"time":1262305877,"description":"General\nComplete name                    : Last Train to Freo.mkv\nFormat                           : Matroska\nFile size                        : 1 011 MiB\nDuration                         : 1h 25mn\nOverall bit rate                 : 1 655 Kbps\n\n\nVideo\nID                               : 1\nFormat                           : AVC\nCodec ID                         : V_MPEG4/ISO/AVC\nDuration                         : 1h 25mn\nBit rate                         : 1 174 Kbps\nWidth                            : 720 pixels\nHeight                           : 574 pixels\nDisplay aspect ratio             : 16:9\nFrame rate                       : 25.000 fps\nResolution                       : 8 bits\nColorimetry                      : 4:2:0\nScan type                        : Progressive\nBits/(Pixel*Frame)               : 0.114\nStream size                      : 717 MiB (71%)\nWriting library                  : x264 core 79\n \n\nAudio\nID                               : 2\nFormat                           : AC-3\nFormat/Info                      : Audio Coding 3\nCodec ID                         : A_AC3\nDuration                         : 1h 25mn\nBit rate mode                    : Constant\nBit rate                         : 448 Kbps\nChannel(s)                       : 6 channels\nChannel positions                : Front: L C R, Surround: L R, LFE\nSampling rate                    : 48.0 KHz\nStream size                      : 274 MiB (27%)\nLanguage                         : English\n\nText #1\nLanguage                         : Norwegian\n\nText #2\nLanguage                         : Danish\n\nText #3\nLanguage                         : Swedish\n\nText #4\nLanguage                         : Finnish\n\n\n\n","torrent":{"xt":"urn:btih:0bbb411503b535a1f4770c252aeaeea94763729d","amp;dn":"Last+Train+to+Freo%5Bx264%5D%5BAC3%285.1%29%5D+Nordic_Sub.mkv","amp;tr":["udp%3A%2F%2Ftracker.openbittorrent.com%3A80","udp%3A%2F%2Fopen.demonii.com%3A1337","udp%3A%2F%2Ftracker.coppersurfer.tk%3A6969","udp%3A%2F%2Fexodus.desync.com%3A6969"],"infoHash":"0bbb411503b535a1f4770c252aeaeea94763729d","infoHashBuffer":{"type":"Buffer","data":[11,187,65,21,3,181,53,161,244,119,12,37,42,234,238,169,71,99,114,157]},"announce":[],"urlList":[]}}